<?xml version="1.0" encoding="UTF-8" standalone="no"?>
<svg
   xmlns:dc="http://purl.org/dc/elements/1.1/"
   xmlns:cc="http://creativecommons.org/ns#"
   xmlns:rdf="http://www.w3.org/1999/02/22-rdf-syntax-ns#"
   xmlns:svg="http://www.w3.org/2000/svg"
   xmlns="http://www.w3.org/2000/svg"
   xmlns:xlink="http://www.w3.org/1999/xlink"
   xmlns:sodipodi="http://sodipodi.sourceforge.net/DTD/sodipodi-0.dtd"
   xmlns:inkscape="http://www.inkscape.org/namespaces/inkscape"
   width="1570.0442"
   height="737.91046"
   viewBox="0 0 1014 986"
   version="1.0"
   id="svg2"
   sodipodi:version="0.32"
   inkscape:version="0.46"
   sodipodi:docname="nb_logo.svg"
   inkscape:output_extension="org.inkscape.output.svg.inkscape">
  <metadata
     id="metadata19">
    <rdf:RDF>
      <cc:Work
         rdf:about="">
        <dc:format>image/svg+xml</dc:format>
        <dc:type
           rdf:resource="http://purl.org/dc/dcmitype/StillImage" />
      </cc:Work>
    </rdf:RDF>
  </metadata>
  <defs
     id="defs17">
    <linearGradient
       inkscape:collect="always"
       id="linearGradient3542">
      <stop
         style="stop-color:#c8beb7;stop-opacity:1"
         offset="0"
         id="stop3544" />
      <stop
         style="stop-color:#483e37;stop-opacity:1"
         offset="1"
         id="stop3546" />
    </linearGradient>
    <linearGradient
       inkscape:collect="always"
       id="linearGradient3534">
      <stop
         style="stop-color:#c8beb7;stop-opacity:1"
         offset="0"
         id="stop3536" />
      <stop
         style="stop-color:#483e37;stop-opacity:1"
         offset="1"
         id="stop3538" />
    </linearGradient>
    <linearGradient
       inkscape:collect="always"
       id="linearGradient3315">
      <stop
         style="stop-color:#000000;stop-opacity:1"
         offset="0"
         id="stop3317" />
      <stop
         id="stop3323"
         offset="0.28771824"
         style="stop-color:#666666;stop-opacity:1" />
      <stop
         style="stop-color:#1a1a1a;stop-opacity:1"
         offset="0.49837202"
         id="stop3327" />
      <stop
         style="stop-color:#666666;stop-opacity:1"
         offset="0.60975218"
         id="stop3325" />
      <stop
         style="stop-color:#000000;stop-opacity:1"
         offset="1"
         id="stop3319" />
    </linearGradient>
    <linearGradient
       inkscape:collect="always"
       xlink:href="#linearGradient3315"
       id="linearGradient3589"
       gradientUnits="userSpaceOnUse"
       gradientTransform="matrix(0.8439798,0,0,0.8439798,-254.17777,-54.707981)"
       x1="-2004.6112"
       y1="-474.16656"
       x2="-1937.8964"
       y2="-324.18237" />
    <linearGradient
       inkscape:collect="always"
       xlink:href="#linearGradient3542"
       id="linearGradient3591"
       gradientUnits="userSpaceOnUse"
       gradientTransform="translate(5.0160955,0)"
       x1="-1947.9629"
       y1="-440.13681"
       x2="-1947.9629"
       y2="-343.06952" />
    <linearGradient
       inkscape:collect="always"
       xlink:href="#linearGradient3534"
       id="linearGradient3593"
       gradientUnits="userSpaceOnUse"
       gradientTransform="matrix(0.8807584,0,0,1.0005019,-225.53323,0.1965624)"
       x1="-1912.304"
       y1="-440.53436"
       x2="-1912.304"
       y2="-342.67197" />
  </defs>
  <sodipodi:namedview
     inkscape:window-height="1153"
     inkscape:window-width="1920"
     inkscape:pageshadow="2"
     inkscape:pageopacity="0.0"
     guidetolerance="10.0"
     gridtolerance="10.0"
     objecttolerance="10.0"
     borderopacity="1.0"
     bordercolor="#666666"
     pagecolor="#ffffff"
     id="base"
     showgrid="false"
     inkscape:zoom="0.340194"
     inkscape:cx="538.77758"
     inkscape:cy="824.79677"
     inkscape:window-x="1920"
     inkscape:window-y="20"
     inkscape:current-layer="svg2"
     showguides="true"
     inkscape:guide-bbox="true" />
  <g
     id="g3582"
     transform="matrix(4.9371168,0,0,4.9371168,10020.362,2596.6306)"
     inkscape:export-filename="F:\client_websites\dante\public\images\nb_logo.png"
     inkscape:export-xdpi="90"
     inkscape:export-ydpi="90">
    <path
       id="path2488"
       d="M -2134.938,-523.85833 C -2131.2049,-506.21311 -2125.6517,-505.23368 -2114.6082,-497.0459 C -2084.1818,-477.00209 -2073.2566,-482.13054 -2044.7314,-466.14496 C -2068.2649,-470.35819 -2090.2559,-474.00125 -2134.938,-482.49897 C -2124.9092,-466.23165 -2119.1914,-466.37365 -2105.5662,-460.65598 C -2075.9017,-449.85835 -2064.5594,-452.44653 -2043.6242,-448.61636 C -2042.7954,-448.00515 -2042.3981,-445.84878 -2042.2402,-445.2281 C -2066.2604,-447.11777 -2088.6849,-448.59726 -2134.3843,-452.68227 C -2133.3258,-451.43488 -2132.3092,-450.3381 -2131.3394,-449.29401 C -2120.5278,-437.65395 -2114.6882,-437.8788 -2101.3528,-433.88872 C -2070.5765,-426.20105 -2059.6321,-429.58954 -2038.9494,-428.03833 C -2036.7196,-426.52696 -2035.1815,-426.53267 -2034.6128,-425.23736 C -2094.1608,-423.85882 -2122.9389,-423.33263 -2122.9124,-423.0237 C -2122.4081,-417.19075 -2105.6825,-417.62517 -2076.8403,-414.89188 C -2049.7494,-412.32458 -2055.5064,-412.50382 -2024.1252,-411.27773 C -2048.1531,-406.95165 -2075.2067,-402.95618 -2102.5521,-398.76376 C -2102.6946,-397.51509 -2084.7721,-392.22948 -2070.966,-392.77783 C -2057.1513,-393.3264 -2008.2136,-402.5571 -2008.1937,-397.38586 C -2011.9375,-394.18606 -2028.7239,-380.73455 -2034.5204,-374.59416 C -2040.3177,-368.45381 -2041.1914,-368.29501 -2040.3334,-359.59547 C -2022.5512,-372.65755 -2005.0104,-381.9267 -1989.8633,-390.04463 C -1995.6278,-385.00267 -2009.7336,-366.93028 -2013.7296,-363.29996 C -2019.0204,-358.49328 -2021.9062,-348.48665 -2020.2806,-346.58455 C -1996.9952,-360.58985 -1984.8343,-374.19299 -1968.1498,-378.54714 C -1976.937,-374.65431 -1989.8637,-357.86842 -1993.4618,-354.01613 C -1998.1316,-349.01466 -2002.7514,-344.08471 -2000.2894,-337.41365 C -1991.7729,-343.47804 -1958.2701,-367.24188 -1946.8053,-372.78709 C -1912.1906,-352.93752 -1949.4937,-350.13179 -1926.9063,-349.18221 C -1904.3189,-350.13179 -1941.6218,-352.93752 -1907.0074,-372.78709 C -1895.5424,-367.24188 -1862.0394,-343.47804 -1853.5231,-337.41365 C -1851.0611,-344.08471 -1855.6811,-349.01466 -1860.351,-354.01613 C -1863.9488,-357.86842 -1876.8755,-374.65431 -1885.663,-378.54714 C -1868.9783,-374.19299 -1856.8174,-360.58985 -1833.5321,-346.58455 C -1831.9063,-348.48665 -1834.7921,-358.49328 -1840.0829,-363.29996 C -1844.0791,-366.93028 -1858.1848,-385.00267 -1863.9495,-390.04463 C -1848.8024,-381.9267 -1831.2616,-372.65755 -1813.4793,-359.59547 C -1812.6214,-368.29501 -1813.495,-368.45381 -1819.2921,-374.59416 C -1825.0889,-380.73455 -1841.8753,-394.18606 -1845.619,-397.38586 C -1845.599,-402.5571 -1796.6612,-393.3264 -1782.8467,-392.77783 C -1769.0406,-392.22948 -1751.1179,-397.51509 -1751.2604,-398.76376 C -1778.6061,-402.95618 -1805.6594,-406.95165 -1829.6876,-411.27773 C -1798.3061,-412.50382 -1804.0632,-412.32458 -1776.9723,-414.89188 C -1748.13,-417.62517 -1731.4044,-417.19075 -1730.9002,-423.0237 C -1730.8735,-423.33263 -1759.6521,-423.85882 -1819.1997,-425.23736 C -1818.6312,-426.53267 -1817.0931,-426.52696 -1814.8633,-428.03833 C -1794.1805,-429.58954 -1783.236,-426.20105 -1752.46,-433.88872 C -1739.1244,-437.8788 -1733.2847,-437.65395 -1722.4732,-449.29401 C -1721.5034,-450.3381 -1720.4868,-451.43488 -1719.4283,-452.68227 C -1765.1278,-448.59726 -1787.5523,-447.11777 -1811.5724,-445.2281 C -1811.4144,-445.84878 -1811.0172,-448.00515 -1810.1884,-448.61636 C -1789.2532,-452.44653 -1777.911,-449.85835 -1748.2465,-460.65598 C -1734.6212,-466.37365 -1728.9033,-466.23165 -1718.8748,-482.49897 C -1763.5566,-474.00125 -1785.5476,-470.35819 -1809.0811,-466.14496 C -1780.5561,-482.13054 -1769.6309,-477.00209 -1739.2043,-497.0459 C -1728.161,-505.23368 -1722.6078,-506.21311 -1718.8748,-523.85833 C -1788.0508,-494.47186 -1768.7357,-502.66156 -1828.4882,-476.15163 C -1843.995,-468.68135 -1857.2588,-468.17938 -1858.6287,-466.52897 C -1859.2137,-465.82421 -1857.8106,-465.23118 -1855.4609,-464.88001 C -1844.6796,-440.8374 -1867.0494,-430.49145 -1898.0883,-438.4064 C -1911.4131,-459.23872 -1895.3608,-459.87313 -1890.8606,-463.81836 C -1888.4496,-463.53981 -1885.7452,-463.74876 -1884.0637,-465.1059 C -1882.4403,-465.53761 -1879.2188,-465.48164 -1877.0512,-466.09979 C -1876.5887,-466.2318 -1876.137,-466.32018 -1875.729,-466.43861 C -1875.1819,-466.59736 -1874.9766,-466.54769 -1874.9292,-467.00332 C -1874.903,-467.25454 -1874.8332,-467.58219 -1875.0521,-467.90686 C -1875.5295,-467.80202 -1875.7079,-467.60102 -1876.1593,-467.47768 C -1879.5928,-466.54003 -1880.1843,-467.78413 -1882.3105,-467.99721 C -1885.5987,-468.3267 -1883.3079,-471.84516 -1880.342,-472.28901 C -1877.7503,-472.67683 -1875.4062,-473.09837 -1874.2526,-471.76948 C -1874.2191,-471.73117 -1874.1901,-471.69577 -1874.1603,-471.65653 C -1874.9038,-474.74775 -1874.649,-476.03047 -1877.5434,-476.03868 C -1878.0901,-476.13011 -1885.5788,-477.09385 -1885.9706,-477.28105 C -1890.8184,-478.61915 -1885.9636,-478.08124 -1893.4133,-478.79447 C -1900.6095,-478.45524 -1908.2329,-474.51177 -1911.9898,-472.71819 C -1914.2441,-471.64199 -1915.6426,-470.6495 -1916.1726,-469.71393 C -1918.084,-464.16433 -1923.7027,-463.62805 -1926.9063,-458.51008 C -1930.11,-463.62805 -1935.7286,-464.16433 -1937.64,-469.71393 C -1938.1702,-470.6495 -1939.5684,-471.64199 -1941.8229,-472.71819 C -1945.5798,-474.51177 -1953.2033,-478.45524 -1960.3993,-478.79447 C -1967.8491,-478.08124 -1962.9943,-478.61915 -1967.8422,-477.28105 C -1968.2338,-477.09385 -1975.7224,-476.13011 -1976.2692,-476.03868 C -1979.1637,-476.03047 -1978.9089,-474.74775 -1979.6523,-471.65653 C -1979.6225,-471.69577 -1979.5936,-471.73117 -1979.5602,-471.76948 C -1978.4063,-473.09837 -1976.0623,-472.67683 -1973.4704,-472.28901 C -1970.5045,-471.84516 -1968.214,-468.3267 -1971.5021,-467.99721 C -1973.6282,-467.78413 -1974.2199,-466.54003 -1977.6531,-467.47768 C -1978.1048,-467.60102 -1978.2831,-467.80202 -1978.7604,-467.90686 C -1978.9794,-467.58219 -1978.9099,-467.25454 -1978.8835,-467.00332 C -1978.8362,-466.54769 -1978.6307,-466.59736 -1978.0838,-466.43861 C -1977.6756,-466.32018 -1977.224,-466.2318 -1976.7613,-466.09979 C -1974.5936,-465.48164 -1971.3723,-465.53761 -1969.7491,-465.1059 C -1968.0674,-463.74876 -1965.3632,-463.53981 -1962.9521,-463.81836 C -1958.4519,-459.87313 -1942.3996,-459.23872 -1955.7245,-438.4064 C -1986.7631,-430.49145 -2009.1332,-440.8374 -1998.3519,-464.88001 C -1996.0021,-465.23118 -1994.599,-465.82421 -1995.184,-466.52897 C -1996.5539,-468.17938 -2009.8175,-468.68135 -2025.3246,-476.15163 C -2085.077,-502.66156 -2065.7618,-494.47186 -2134.938,-523.85833 z"
       style="fill:#000000;fill-opacity:1;stroke:none;stroke-width:2;stroke-linecap:round;stroke-linejoin:round;stroke-miterlimit:4;stroke-dasharray:none;stroke-opacity:1" />
    <path
       sodipodi:nodetypes="cscscsccc"
       id="path2490"
       d="M -1973.3275,-438.72976 C -1973.3276,-438.72977 -1980.1591,-399.718 -1964.253,-360.64298 C -1957.8121,-344.82008 -1947.0674,-343.01459 -1927.0206,-331.22699 C -1926.9827,-331.2493 -1926.9443,-331.26193 -1926.9064,-331.28418 C -1926.8684,-331.26193 -1926.8299,-331.2493 -1926.7919,-331.22699 C -1906.7451,-343.01459 -1896.0007,-344.82008 -1889.5597,-360.64298 C -1873.6535,-399.718 -1880.4851,-438.72977 -1880.4851,-438.72976 C -1896.602,-439.02051 -1912.8296,-444.59794 -1926.9064,-451.97935 C -1940.6821,-443.93277 -1957.0837,-437.62378 -1973.3275,-438.72976 z"
       style="fill:#000000;fill-opacity:1;stroke:url(#linearGradient3589);stroke-width:5.83127213;stroke-linecap:round;stroke-linejoin:miter;stroke-miterlimit:4;stroke-dasharray:none;stroke-opacity:1" />
    <g
       style="opacity:0.61504421"
       transform="translate(-1.0472366,0)"
       id="g3564">
      <path
         sodipodi:nodetypes="cccccccccccccccccccccccccccccccccccccccccccccccccccccccccccccc"
         id="path3416"
         d="M -1929.5949,-440.13681 C -1930.7267,-434.86717 -1932.5093,-428.23846 -1937.5011,-427.07339 L -1937.5919,-426.15931 L -1937.0372,-425.87004 L -1935.7464,-424.19228 L -1937.0372,-424.70139 L -1935.7464,-423.71787 L -1937.0372,-424.22699 C -1937.0372,-424.22699 -1936.8527,-384.40396 -1937.0372,-383.00029 L -1948.8001,-409.34199 L -1948.3016,-409.8445 C -1948.9052,-411.02901 -1949.7555,-413.62146 -1950.0967,-420.74418 C -1951.2287,-415.47454 -1952.3658,-414.77008 -1957.3575,-413.60501 L -1957.4483,-412.69092 L -1956.8937,-412.40165 L -1955.6028,-412.20495 L -1956.8937,-411.97353 L -1955.6028,-411.73054 L -1956.8937,-411.49913 L -1956.8937,-371.70721 L -1955.6028,-371.48737 L -1956.8937,-371.23281 L -1955.6028,-371.0014 L -1956.8937,-370.80469 L -1957.4483,-370.51543 L -1957.3575,-369.60133 C -1952.3658,-368.43627 -1951.2286,-367.73181 -1950.0967,-362.46216 C -1949.7556,-369.58489 -1948.9052,-372.17734 -1948.3016,-373.36183 L -1949.2193,-374.34535 L -1949.3605,-374.50735 L -1949.542,-374.70405 L -1950.0866,-375.34044 L -1949.4412,-376.08097 L -1950.0866,-376.8215 L -1949.2193,-377.81659 C -1949.2194,-377.81659 -1949.242,-382.25201 -1949.2193,-393.54128 C -1948.7814,-404.56875 -1940.0763,-378.47243 -1937.0372,-374.17179 L -1937.0372,-358.97936 L -1935.7464,-359.50005 L -1937.0372,-358.50495 L -1935.7464,-359.01407 L -1937.0372,-357.33631 L -1937.5919,-357.04704 L -1937.5011,-356.13294 C -1932.5093,-354.96789 -1930.7267,-348.33917 -1929.5949,-343.06953 C -1929.2536,-350.19226 -1929.0487,-358.70896 -1928.4452,-359.89344 L -1929.3629,-360.87697 L -1929.5041,-361.03895 L -1929.6856,-361.23566 L -1930.2301,-361.87205 L -1929.5847,-362.61259 L -1930.2301,-363.35312 L -1929.3629,-364.3482 L -1929.3629,-418.85815 L -1930.2301,-419.85324 L -1929.5847,-420.59377 L -1930.2301,-421.33429 L -1929.6856,-421.97069 L -1929.5041,-422.16739 L -1929.3629,-422.32938 L -1928.4452,-423.31289 C -1929.0487,-424.4974 -1929.2536,-433.01409 -1929.5949,-440.13681 z"
         style="fill:url(#linearGradient3591);fill-opacity:1;stroke:#ffffff;stroke-width:0.79511178;stroke-linecap:butt;stroke-linejoin:miter;stroke-miterlimit:4;stroke-dasharray:none;stroke-opacity:1" />
      <path
         sodipodi:nodetypes="ccccccccccccccccccccccccccccccccccccccccccccccccccccccccccccccccccc"
         id="path3418"
         d="M -1921.8462,-440.16118 C -1922.1024,-434.088 -1922.2722,-427.01963 -1922.6455,-424.3244 L -1922.7876,-424.30124 C -1923.682,-418.57093 -1924.2228,-417.26549 -1928.2679,-415.9661 C -1925.2975,-415.75333 -1923.3523,-415.36602 -1922.0504,-414.94736 L -1922.0504,-368.6989 C -1923.351,-368.29546 -1925.2571,-367.93258 -1928.1346,-367.72644 C -1924.2416,-366.4759 -1923.5927,-365.20581 -1922.7521,-360.00488 L -1922.8588,-359.87753 C -1922.3272,-358.69247 -1922.1468,-350.17148 -1921.8462,-343.04516 C -1920.8492,-348.31748 -1919.2792,-354.9495 -1914.8826,-356.11513 L -1914.8026,-357.0297 L -1915.2911,-357.31911 L -1916.428,-358.99771 L -1915.2911,-358.48834 L -1916.428,-359.48394 L -1915.2911,-358.96299 L -1915.2911,-359.92383 L -1898.4508,-362.14655 L -1898.282,-363.62834 L -1898.0868,-362.14655 L -1897.9091,-363.62834 L -1897.7582,-362.14655 L -1897.536,-361.50984 L -1896.8343,-361.61403 C -1895.94,-367.34435 -1895.3993,-368.64976 -1891.3542,-369.94916 C -1896.6629,-370.32945 -1899.1141,-370.70061 -1899.6322,-371.94034 L -1907.7771,-391.43531 C -1906.1944,-396.56449 -1900.8078,-411.07829 -1899.8809,-412.31947 C -1898.6519,-412.88062 -1896.5389,-413.46299 -1892.6242,-413.74339 C -1896.6693,-415.04278 -1897.2102,-416.3482 -1898.1046,-422.07854 L -1898.8062,-422.18273 L -1899.0282,-421.54603 L -1899.1792,-420.0642 L -1899.3569,-421.54603 L -1899.5523,-420.0642 C -1899.5523,-420.0642 -1899.4917,-419.41107 -1899.721,-421.54603 C -1905.0458,-419.78286 -1915.2911,-423.76872 -1915.2911,-423.76872 L -1915.2911,-424.24336 L -1916.3482,-423.76872 L -1916.3838,-423.76872 L -1915.2911,-424.718 L -1916.428,-424.20864 L -1915.2911,-425.88724 L -1914.8026,-426.17665 L -1914.8826,-427.0912 C -1919.2793,-428.25688 -1920.8492,-434.88886 -1921.8462,-440.16118 z M -1915.2911,-414.95894 L -1906.6756,-414.95894 L -1912.8398,-397.66351 L -1913.6392,-397.66351 L -1913.6481,-398.55491 L -1913.6392,-398.84431 L -1913.6392,-399.06429 L -1913.6036,-400.51135 C -1914.0011,-400.64715 -1914.5419,-400.90364 -1915.2911,-401.44906 L -1915.2911,-414.95894 z M -1913.4704,-385.41549 L -1912.7333,-385.41549 L -1906.1782,-368.73363 L -1915.2911,-368.73363 L -1915.2911,-381.5026 C -1914.4544,-382.13304 -1913.8609,-382.42206 -1913.435,-382.56764 L -1913.4704,-384.00314 L -1913.4704,-384.23467 L -1913.4793,-384.52409 L -1913.4704,-385.41549 z"
         style="fill:url(#linearGradient3593);fill-opacity:1;stroke:#ffffff;stroke-width:0.74638951;stroke-linecap:butt;stroke-linejoin:miter;stroke-miterlimit:4;stroke-dasharray:none;stroke-opacity:1" />
    </g>
  </g>
</svg>
