<?xml version="1.0" encoding="UTF-8" standalone="no"?>
<svg
   xmlns:dc="http://purl.org/dc/elements/1.1/"
   xmlns:cc="http://creativecommons.org/ns#"
   xmlns:rdf="http://www.w3.org/1999/02/22-rdf-syntax-ns#"
   xmlns:svg="http://www.w3.org/2000/svg"
   xmlns="http://www.w3.org/2000/svg"
   xmlns:sodipodi="http://sodipodi.sourceforge.net/DTD/sodipodi-0.dtd"
   xmlns:inkscape="http://www.inkscape.org/namespaces/inkscape"
   width="1014pt"
   height="986pt"
   viewBox="0 0 1014 986"
   version="1.1"
   id="svg2"
   sodipodi:version="0.32"
   inkscape:version="0.46"
   sodipodi:docname="dp2.svg"
   inkscape:output_extension="org.inkscape.output.svg.inkscape">
  <metadata
     id="metadata19">
    <rdf:RDF>
      <cc:Work
         rdf:about="">
        <dc:format>image/svg+xml</dc:format>
        <dc:type
           rdf:resource="http://purl.org/dc/dcmitype/StillImage" />
      </cc:Work>
    </rdf:RDF>
  </metadata>
  <defs
     id="defs17">
    <inkscape:perspective
       sodipodi:type="inkscape:persp3d"
       inkscape:vp_x="0 : 616.25 : 1"
       inkscape:vp_y="0 : 1000 : 0"
       inkscape:vp_z="1267.5 : 616.25 : 1"
       inkscape:persp3d-origin="633.75 : 410.83333 : 1"
       id="perspective21" />
  </defs>
  <sodipodi:namedview
     inkscape:window-height="1153"
     inkscape:window-width="1920"
     inkscape:pageshadow="2"
     inkscape:pageopacity="0.0"
     guidetolerance="10.0"
     gridtolerance="10.0"
     objecttolerance="10.0"
     borderopacity="1.0"
     bordercolor="#666666"
     pagecolor="#ffffff"
     id="base"
     showgrid="false"
     inkscape:zoom="0.74969574"
     inkscape:cx="974.35833"
     inkscape:cy="959.7711"
     inkscape:window-x="1916"
     inkscape:window-y="-4"
     inkscape:current-layer="svg2" />
  <path
     style="fill:#020202"
     d="M 307.54,132.18 C 345.31474,150.19219 383.39463,168.84854 419.57735,189.72172 C 449.80367,207.15875 480.89022,227.34355 497.54,260.48 C 511.19194,287.65012 519.96995,319.84355 526.00875,349.82501 C 533.56511,387.34083 530.24809,421.78664 522.61,453.43 C 515.31565,483.6493 474.54042,552.50766 454.45,570.63 C 434.35958,588.75234 404.81753,590.76228 370.465,603.34672 C 308.37621,626.09185 241.28702,618.95244 176.93906,610.6411 C 127.85117,604.30079 68.833666,590.07264 41.294531,544.5575 C 23.884795,515.78366 11.940589,482.8669 7.955,449.22 C 3.0086531,407.46224 12.61732,416.4736 39.42,415.63 C 74.248181,414.53381 156.87621,412.43989 191.59322,410.36697 C 218.39153,408.76687 247.73081,402.07089 251.01109,441.70078 C 254.00654,477.88957 256.18145,514.49204 291.58555,526.36762 C 322.60579,536.77273 394.54907,536.67443 423.44,517.87 C 450.24517,500.42314 460.37033,468.87301 463.57,436.75 C 467.75749,394.7097 437.60428,364.35582 406.53625,341.85375 C 376.47901,320.08378 343.73388,305.67726 308.02,297.36 C 243.78207,282.39989 179.86193,267.22512 115.365,254.45125 C 82.636523,247.96924 45.345373,239.62334 29.777812,205.78453 C 15.697548,175.17862 -0.62654624,142.57522 0.68375,108.32125 C 0.33479271,65.234257 2.9607825,21.713983 4.9054467,15.725443 C 6.905441,9.5665155 8.4509939,4.8326962 15.39,2.46 C 22.758258,3.085768 249.54746,105.49032 307.54,132.18 z"
     id="path6"
     sodipodi:nodetypes="cssszzssssssssssssssczcc" />
  <path
     d="M 622.51689,2.2979146 C 622.73039,-2.4970754 629.79542,-7.563971 633.90872,-5.8730221 C 700.70617,21.586934 766.7638,45.211152 832.13872,71.906973 C 887.28509,94.425969 938.53183,127.11864 985.54872,171.60697 C 1026.0516,209.93159 1057.1912,249.71445 1064.3487,305.60698 C 1072.524,369.44772 1043.7573,410.28333 1006.1587,456.66698 C 955.55052,519.10001 907.82954,520.30908 837.10872,498.39698 C 765.94796,476.34857 741.77898,465.94979 728.19872,444.84698 C 725.371,440.4529 721.25966,436.8847 717.19872,433.70698 C 712.56966,430.0847 704.30944,433.45167 702.58872,439.29698 C 697.57547,456.32703 692.72834,479.38735 694.39872,497.32698 C 698.41279,540.4376 711.28419,587.61217 728.77872,627.34698 C 752.26477,679.89097 802.62962,747.75945 820.28872,772.88698 C 824.91481,779.46955 828.18031,782.59844 829.72238,788.33613 C 831.09117,793.4291 830.92106,796.6562 827.01872,801.70698 C 787.96981,852.24782 786.13016,859.63813 675.79872,956.72698 C 668.58877,963.07156 656.77413,954.47051 649.29872,948.81698 C 588.64298,897.59675 549.69504,823.57243 506.23874,757.93698 C 503.11884,753.22476 501.77029,747.77203 502.22874,742.39698 C 503.32589,729.53348 508.4291,722.59363 518.66874,715.15698 C 549.48126,692.77907 580.19517,673.50926 607.93872,648.43698 C 619.77658,637.73892 627.39644,622.18723 631.22872,606.95698 C 636.47127,586.12201 638.44446,568.5686 634.93872,547.22698 C 632.07784,529.811 628.45317,508.75611 625.92872,491.20698 C 616.48211,425.5374 618.10775,362.17969 610.20872,299.17698 C 609.12418,290.52667 610.2932,281.73029 609.27872,273.03698 C 608.3432,265.02029 608.3246,256.30731 612.30872,248.91697 C 614.1846,245.43731 618.09706,243.25564 621.81872,243.30697 C 625.34706,243.35564 628.153,246.24557 631.18872,247.92697 C 692.6948,281.99342 759.11093,305.42064 825.08872,329.18698 C 827.98053,330.22866 829.14091,333.41595 829.06872,336.25698 C 828.97091,340.10595 828.10794,343.61064 827.19872,347.66698 C 815.48744,399.91503 815.43975,425.66138 849.57872,439.02698 C 865.39155,445.21779 906.80158,449.4161 923.55872,446.28698 C 941.04818,443.02112 959.95302,432.35447 972.07872,418.74698 C 984.96562,404.28528 994.22802,388.29546 997.78872,369.16698 C 1002.1754,345.60129 995.31737,320.26575 980.26872,301.82698 C 976.40737,297.09575 972.30661,292.38144 967.34872,288.82698 C 932.16211,263.60067 880.91938,259.60339 838.91872,252.15697 C 805.73068,246.27296 768.51092,235.54896 741.58872,224.69697 C 713.16882,213.24128 686.07708,197.30241 661.96872,178.16697 C 648.79658,167.7119 626.66702,139.29594 623.10872,122.33697 C 617.48292,95.523953 617.27882,74.986753 619.32872,48.676975 C 620.60372,32.313538 621.78649,18.708105 622.51689,2.2979146 z"
     id="path8"
     sodipodi:nodetypes="csssssssssscsssscsssssssssssssssssssssssssss"
     style="fill:#020202" />
  <path
     fill="#fefefe"
     d=" M 957.23 233.17 C 957.83 233.79 957.83 233.79 957.23 233.17 Z"
     id="path10" />
  <path
     fill="#fefefe"
     d=" M 581.24 554.23 C 581.81 554.81 581.81 554.81 581.24 554.23 Z"
     id="path12" />
  <path
     fill="#fefefe"
     d=" M 506.26 867.17 C 509.28 865.62 506.44 870.46 506.26 867.17 Z"
     id="path14" />
</svg>
